<svg xmlns="http://www.w3.org/2000/svg" xmlns:xlink="http://www.w3.org/1999/xlink" width="1239.46" height="671.404" viewBox="0 0 1239.46 671.404">
  <defs>
    <clipPath id="clip-path">
      <rect id="Rectangle_270" data-name="Rectangle 270" width="28.03" height="20.55" transform="translate(197.789 194.225) rotate(-6.27)" fill="#a57d4b" stroke="#263238" stroke-linecap="round" stroke-linejoin="round" stroke-width="1"/>
    </clipPath>
    <clipPath id="clip-path-2">
      <rect id="Rectangle_274" data-name="Rectangle 274" width="28.03" height="20.55" transform="translate(229.071 190.649) rotate(-6.27)" fill="#a57d4b" stroke="#263238" stroke-linecap="round" stroke-linejoin="round" stroke-width="1"/>
    </clipPath>
    <clipPath id="clip-path-3">
      <rect id="Rectangle_278" data-name="Rectangle 278" width="28.03" height="20.55" transform="translate(260.373 187.072) rotate(-6.27)" fill="#a57d4b" stroke="#263238" stroke-linecap="round" stroke-linejoin="round" stroke-width="1"/>
    </clipPath>
    <clipPath id="clip-path-4">
      <rect id="Rectangle_281" data-name="Rectangle 281" width="91.06" height="66.75" transform="translate(188.964 114.164) rotate(-6.27)" fill="#a57d4b" stroke="#263238" stroke-linecap="round" stroke-linejoin="round" stroke-width="1"/>
    </clipPath>
  </defs>
  <g id="Group_385" data-name="Group 385" transform="translate(-504.25 -4441.372)" opacity="0.33">
    <g id="freepik--website-2--inject-2" transform="translate(1010.163 4711.496)">
      <path id="Path_1876" data-name="Path 1876" d="M239.79,263.83V384.36l-16.43,16.42H136.77V263.83Z" fill="#fff" stroke="#263238" stroke-linecap="round" stroke-linejoin="round" stroke-width="1"/>
      <rect id="Rectangle_261" data-name="Rectangle 261" width="103.01" height="11.67" transform="translate(136.77 263.83)" fill="#a57d4b" stroke="#263238" stroke-linecap="round" stroke-linejoin="round" stroke-width="1"/>
      <path id="Path_1877" data-name="Path 1877" d="M239.86,384.29l-16.5,16.49V384.29Z" fill="#bfbfbf" stroke="#263238" stroke-linecap="round" stroke-linejoin="round" stroke-width="1"/>
      <path id="Path_1878" data-name="Path 1878" d="M188.28,272.3l1.14,3.86s-2.9,1.95-1.14,3.36l1.76,1.41s-1.19,4.13.79,5.22,8.51-.33,10.09-2.77-3.87-4.95-3.87-4.95,1.6-2,.71-2.93-4.06-.53-4.06-.53l-2.17-3.66Z" fill="rgba(0,0,0,0.7)" opacity="0.3"/>
      <ellipse id="Ellipse_72" data-name="Ellipse 72" cx="7.34" cy="6.88" rx="7.34" ry="6.88" transform="translate(182.08 256.15)" fill="#263238"/>
      <path id="Path_1879" data-name="Path 1879" d="M196.19,268.82c0,2.76-3,5-6.77,5s-6.77-2.23-6.77-5,3-5,6.77-5S196.19,266.06,196.19,268.82Z" fill="#263238"/>
      <path id="Path_1880" data-name="Path 1880" d="M193.46,267.57a6.12,6.12,0,0,0,1.92-2.24" fill="none" stroke="#fff" stroke-linecap="round" stroke-linejoin="round" stroke-width="1"/>
      <path id="Path_1881" data-name="Path 1881" d="M183.61,265.63a7,7,0,0,0,5.81,3.19" fill="none" stroke="#fff" stroke-linecap="round" stroke-linejoin="round" stroke-width="1"/>
      <rect id="Rectangle_262" data-name="Rectangle 262" width="91.06" height="55.39" transform="translate(142.75 292.29)" fill="#263238" stroke="#263238" stroke-linecap="round" stroke-linejoin="round" stroke-width="1"/>
      <path id="Path_1882" data-name="Path 1882" d="M176.76,310.22v23.06l25.31-11.53Z" fill="#a57d4b" stroke="#263238" stroke-linecap="round" stroke-linejoin="round" stroke-width="1"/>
      <path id="Path_1883" data-name="Path 1883" d="M175.61,283.78H143.47a.69.69,0,1,0,0,1.38h32.14a.69.69,0,1,0,0-1.38Z" fill="#263238"/>
      <path id="Path_1884" data-name="Path 1884" d="M232.61,366.78H143.47a.69.69,0,1,0,0,1.38h89.14a.69.69,0,0,0,0-1.38Z" fill="#263238"/>
      <path id="Path_1885" data-name="Path 1885" d="M232.61,372.78H143.47a.69.69,0,0,0,0,1.38h89.14a.69.69,0,1,0,0-1.38Z" fill="#263238"/>
      <path id="Path_1886" data-name="Path 1886" d="M232.61,378.78H143.47a.69.69,0,0,0,0,1.38h89.14a.69.69,0,1,0,0-1.38Z" fill="#263238"/>
      <path id="Path_1887" data-name="Path 1887" d="M212.61,384.78H143.47a.69.69,0,0,0,0,1.38h69.14a.69.69,0,0,0,0-1.38Z" fill="#263238"/>
      <path id="Path_1888" data-name="Path 1888" d="M232.61,360.78H143.47a.69.69,0,1,0,0,1.38h89.14a.69.69,0,0,0,0-1.38Z" fill="#263238"/>
      <path id="Path_1889" data-name="Path 1889" d="M175.61,353.78H143.47a.69.69,0,1,0,0,1.38h32.14a.69.69,0,0,0,0-1.38Z" fill="#263238"/>
      <rect id="Rectangle_263" data-name="Rectangle 263" width="91.06" height="3.8" transform="translate(142.75 343.88)" fill="#bfbfbf" stroke="#263238" stroke-linecap="round" stroke-linejoin="round" stroke-width="1"/>
      <rect id="Rectangle_264" data-name="Rectangle 264" width="49.61" height="3.8" transform="translate(142.75 343.88)" fill="#a57d4b" stroke="#263238" stroke-linecap="round" stroke-linejoin="round" stroke-width="1"/>
    </g>
    <g id="freepik--website-1--inject-2" transform="translate(442.44 4284.646)">
      <path id="Path_1890" data-name="Path 1890" d="M165.33,164.41V284.94l-16.42,16.42H62.31V164.41Z" fill="#fff" stroke="#263238" stroke-linecap="round" stroke-linejoin="round" stroke-width="1"/>
      <path id="Path_1891" data-name="Path 1891" d="M104.89,182.89H69.1a.77.77,0,1,0,0,1.54h35.79a.77.77,0,0,0,0-1.54Z" fill="#263238"/>
      <path id="Path_1892" data-name="Path 1892" d="M126.24,222H94.85a.77.77,0,1,0,0,1.54h31.39a.77.77,0,0,0,0-1.54Z" fill="#263238"/>
      <path id="Path_1893" data-name="Path 1893" d="M126.24,227.32H94.44a.77.77,0,1,0,0,1.54h31.8a.77.77,0,0,0,0-1.54Z" fill="#263238"/>
      <path id="Path_1894" data-name="Path 1894" d="M126.24,232.68H94.44a.77.77,0,1,0,0,1.54h31.8a.77.77,0,0,0,0-1.54Z" fill="#263238"/>
      <path id="Path_1895" data-name="Path 1895" d="M116.11,238.05H94.44a.77.77,0,1,0,0,1.54h21.67a.77.77,0,0,0,0-1.54Z" fill="#263238"/>
      <path id="Path_1896" data-name="Path 1896" d="M126.24,246.77H81.85a.77.77,0,0,0,0,1.54h44.39a.77.77,0,0,0,0-1.54Z" fill="#263238"/>
      <path id="Path_1897" data-name="Path 1897" d="M126.24,252.14H68.44a.77.77,0,1,0,0,1.54h57.8a.77.77,0,0,0,0-1.54Z" fill="#263238"/>
      <path id="Path_1898" data-name="Path 1898" d="M126.24,257.5H68.44a.77.77,0,1,0,0,1.54h57.8a.77.77,0,1,0,0-1.54Z" fill="#263238"/>
      <path id="Path_1899" data-name="Path 1899" d="M126.24,262.87H68.44a.77.77,0,0,0,0,1.54h57.8a.77.77,0,1,0,0-1.54Z" fill="#263238"/>
      <path id="Path_1900" data-name="Path 1900" d="M106.24,268.24H68.44a.77.77,0,0,0,0,1.54h37.8a.77.77,0,1,0,0-1.54Z" fill="#263238"/>
      <path id="Path_1901" data-name="Path 1901" d="M126.24,276.77H81.85a.77.77,0,1,0,0,1.54h44.39a.77.77,0,1,0,0-1.54Z" fill="#263238"/>
      <path id="Path_1902" data-name="Path 1902" d="M126.24,282.14H68.44a.77.77,0,0,0,0,1.54h57.8a.77.77,0,1,0,0-1.54Z" fill="#263238"/>
      <path id="Path_1903" data-name="Path 1903" d="M106.24,287.5H68.44a.77.77,0,0,0,0,1.54h37.8a.77.77,0,1,0,0-1.54Z" fill="#263238"/>
      <rect id="Rectangle_265" data-name="Rectangle 265" width="103.01" height="11.67" transform="translate(62.32 164.41)" fill="#a57d4b" stroke="#263238" stroke-linecap="round" stroke-linejoin="round" stroke-width="1"/>
      <path id="Path_1904" data-name="Path 1904" d="M113.82,172.88l1.14,3.86s-2.9,1.95-1.14,3.36l1.76,1.41s-1.18,4.13.8,5.22,8.5-.33,10.08-2.77-3.87-5-3.87-5,1.6-2,.71-2.93-4.06-.53-4.06-.53l-2.17-3.66Z" fill="rgba(0,0,0,0.7)" opacity="0.3"/>
      <path id="Path_1905" data-name="Path 1905" d="M122.31,163.61a7.36,7.36,0,1,1-7.35-6.88,7.13,7.13,0,0,1,7.35,6.88Z" fill="#263238"/>
      <ellipse id="Ellipse_73" data-name="Ellipse 73" cx="6.77" cy="4.99" rx="6.77" ry="4.99" transform="translate(108.19 164.41)" fill="#263238"/>
      <path id="Path_1906" data-name="Path 1906" d="M119,168.14a6.26,6.26,0,0,0,1.92-2.23" fill="none" stroke="#fff" stroke-linecap="round" stroke-linejoin="round" stroke-width="1"/>
      <path id="Path_1907" data-name="Path 1907" d="M109.16,166.2a6.93,6.93,0,0,0,5.8,3.2" fill="none" stroke="#fff" stroke-linecap="round" stroke-linejoin="round" stroke-width="1"/>
      <line id="Line_57" data-name="Line 57" y2="118.79" transform="translate(134.12 179.49)" fill="none" stroke="#263238" stroke-linecap="round" stroke-linejoin="round" stroke-width="1"/>
      <path id="Path_1908" data-name="Path 1908" d="M159,182.89H139.61a.77.77,0,1,0,0,1.54H159a.77.77,0,0,0,0-1.54Z" fill="#263238"/>
      <path id="Path_1909" data-name="Path 1909" d="M159,190.89H139.61a.77.77,0,1,0,0,1.54H159a.77.77,0,0,0,0-1.54Z" fill="#263238"/>
      <path id="Path_1910" data-name="Path 1910" d="M159,198.84H139.61a.77.77,0,1,0,0,1.54H159a.77.77,0,0,0,0-1.54Z" fill="#263238"/>
      <path id="Path_1911" data-name="Path 1911" d="M159,206.79H139.61a.77.77,0,1,0,0,1.54H159a.77.77,0,0,0,0-1.54Z" fill="#263238"/>
      <path id="Path_1912" data-name="Path 1912" d="M159,214.74H139.61a.77.77,0,1,0,0,1.54H159a.77.77,0,0,0,0-1.54Z" fill="#263238"/>
      <path id="Path_1913" data-name="Path 1913" d="M159,222.69H139.61a.77.77,0,1,0,0,1.54H159a.77.77,0,0,0,0-1.54Z" fill="#263238"/>
      <path id="Path_1914" data-name="Path 1914" d="M159,230.64H139.61a.77.77,0,1,0,0,1.54H159a.77.77,0,1,0,0-1.54Z" fill="#263238"/>
      <path id="Path_1915" data-name="Path 1915" d="M159,238.59H139.61a.77.77,0,1,0,0,1.54H159a.77.77,0,0,0,0-1.54Z" fill="#263238"/>
      <path id="Path_1916" data-name="Path 1916" d="M159,246.54H139.61a.77.77,0,1,0,0,1.54H159a.77.77,0,0,0,0-1.54Z" fill="#263238"/>
      <path id="Path_1917" data-name="Path 1917" d="M159,254.49H139.61a.77.77,0,1,0,0,1.54H159a.77.77,0,0,0,0-1.54Z" fill="#263238"/>
      <path id="Path_1918" data-name="Path 1918" d="M159,262.44H139.61a.77.77,0,0,0,0,1.54H159a.77.77,0,1,0,0-1.54Z" fill="#263238"/>
      <path id="Path_1919" data-name="Path 1919" d="M159,270.39H139.61a.77.77,0,0,0,0,1.54H159a.77.77,0,1,0,0-1.54Z" fill="#263238"/>
      <path id="Path_1920" data-name="Path 1920" d="M159,278.34H139.61a.77.77,0,1,0,0,1.54H159a.77.77,0,1,0,0-1.54Z" fill="#263238"/>
      <path id="Path_1921" data-name="Path 1921" d="M159,286.29H139.61a.78.78,0,0,0,0,1.55H159a.78.78,0,0,0,0-1.55Z" fill="#263238"/>
      <path id="Path_1922" data-name="Path 1922" d="M165.4,284.87l-16.49,16.49V284.87Z" fill="#bfbfbf" stroke="#263238" stroke-linecap="round" stroke-linejoin="round" stroke-width="1"/>
      <rect id="Rectangle_266" data-name="Rectangle 266" width="60.35" height="25.74" transform="translate(67.97 189.77)" fill="#757575" stroke="#263238" stroke-linecap="round" stroke-linejoin="round" stroke-width="1"/>
      <path id="Path_1923" data-name="Path 1923" d="M67.97,205.42l1.89-2.78,1.05.73,2.11-3.76,1.76,4.49,1.14-.73,2.25,4.96,2.37-5.69,1.18,1.33,3.3-8.57,2.26,6.46h1.17l1.85,3.95,1.64-3.17,1.78,4.92,4.42-9.26,2.44,5.07.79-1.51.8.78,3.49-8.83,4.94,13.7,2.65-4.59.57,2.1,2.46-4.64,1.97,3.59,1.72-2.9,2.34,4.22,3.59-8.31,1.11,1.86,1.31-3.6v20.27H67.97Z" fill="#999" stroke="#263238" stroke-linecap="round" stroke-linejoin="round" stroke-width="1"/>
      <path id="Path_1924" data-name="Path 1924" d="M88.85,230.54v.08A9.83,9.83,0,0,1,79,240.36a9.68,9.68,0,0,1-5.72-1.85,9.827,9.827,0,1,1,15.58-7.97Z" fill="#fff" stroke="#263238" stroke-linecap="round" stroke-linejoin="round" stroke-width="1"/>
      <path id="Path_1925" data-name="Path 1925" d="M88.85,230.54A9.83,9.83,0,0,1,79,240.36a9.68,9.68,0,0,1-5.72-1.85l5.72-8,9.45-2.69a9.5,9.5,0,0,1,.4,2.72Z" fill="#bfbfbf" stroke="#263238" stroke-miterlimit="10" stroke-width="1"/>
      <path id="Path_1926" data-name="Path 1926" d="M88.85,230.54v.08L79,230.54,83.89,222a9.74,9.74,0,0,1,4.58,5.84,9.5,9.5,0,0,1,.38,2.7Z" fill="#999" stroke="#263238" stroke-linecap="round" stroke-linejoin="round" stroke-width="1"/>
      <path id="Path_1927" data-name="Path 1927" d="M87,224.79h0l-8,5.73v-9.83a9.881,9.881,0,0,1,8,4.081Z" fill="#757575" stroke="#263238" stroke-linecap="round" stroke-linejoin="round" stroke-width="1"/>
    </g>
    <g id="Group_384" data-name="Group 384" transform="translate(387 179.41)">
      <path id="Path_1999" data-name="Path 1999" d="M283.54,86.57,296.7,206.38,282.17,224.5l-86.07,9.45L181.14,97.82Z" transform="translate(1059.44 4322.496)" fill="#fff" stroke="#263238" stroke-linecap="round" stroke-linejoin="round" stroke-width="1"/>
      <rect id="Rectangle_267" data-name="Rectangle 267" width="102.607" height="11.624" transform="translate(1239.933 4419.802) rotate(-6.34)" fill="#a57d4b" stroke="#263238" stroke-linecap="round" stroke-linejoin="round" stroke-width="0.996"/>
      <path id="Path_2000" data-name="Path 2000" d="M229.57,183l-31.94,3.5a.71.71,0,0,0-.62.77.7.7,0,0,0,.77.61l31.94-3.51a.69.69,0,1,0-.15-1.37Z" transform="translate(1059.44 4322.496)" fill="#263238"/>
      <path id="Path_2001" data-name="Path 2001" d="M296.77,206.3l-14.6,18.2-1.8-16.4Z" transform="translate(1059.44 4322.496)" fill="#bfbfbf" stroke="#263238" stroke-linecap="round" stroke-linejoin="round" stroke-width="1"/>
      <rect id="Rectangle_268" data-name="Rectangle 268" width="28.03" height="20.55" transform="translate(1257.229 4516.721) rotate(-6.27)" fill="#a57d4b"/>
      <g id="Group_380" data-name="Group 380" transform="translate(1059.44 4322.496)" clip-path="url(#clip-path)">
        <rect id="Rectangle_269" data-name="Rectangle 269" width="28.03" height="20.55" transform="translate(197.789 194.225) rotate(-6.27)" fill="#fff" stroke="#263238" stroke-linecap="round" stroke-linejoin="round" stroke-width="1" opacity="0.5"/>
      </g>
      <rect id="Rectangle_271" data-name="Rectangle 271" width="28.03" height="20.55" transform="translate(1257.229 4516.721) rotate(-6.27)" fill="none" stroke="#263238" stroke-linecap="round" stroke-linejoin="round" stroke-width="1"/>
      <path id="Path_2002" data-name="Path 2002" d="M199.33,208.33s2.59-4.76,5.16-5.05,6.93,5.12,11.08,5.05,6.91-4.93,11.65-2.84" transform="translate(1059.44 4322.496)" fill="none" stroke="#263238" stroke-linecap="round" stroke-linejoin="round" stroke-width="1"/>
      <path id="Path_2003" data-name="Path 2003" d="M218.66,195.69a3.16,3.16,0,0,1-2.51,4.67H216a3.16,3.16,0,1,0,2.67-4.66Z" transform="translate(1059.44 4322.496)" fill="none" stroke="#263238" stroke-linecap="round" stroke-linejoin="round" stroke-width="1"/>
      <rect id="Rectangle_272" data-name="Rectangle 272" width="28.03" height="20.55" transform="translate(1288.511 4513.145) rotate(-6.27)" fill="#a57d4b"/>
      <g id="Group_381" data-name="Group 381" transform="translate(1059.44 4322.496)" clip-path="url(#clip-path-2)">
        <rect id="Rectangle_273" data-name="Rectangle 273" width="28.03" height="20.55" transform="translate(229.071 190.649) rotate(-6.27)" fill="#fff" stroke="#263238" stroke-linecap="round" stroke-linejoin="round" stroke-width="1" opacity="0.5"/>
      </g>
      <rect id="Rectangle_275" data-name="Rectangle 275" width="28.03" height="20.55" transform="translate(1288.511 4513.145) rotate(-6.27)" fill="none" stroke="#263238" stroke-linecap="round" stroke-linejoin="round" stroke-width="1"/>
      <path id="Path_2004" data-name="Path 2004" d="M230.27,201.52l11.91-1.18,6.26,3.66,10.15-1.08" transform="translate(1059.44 4322.496)" fill="none" stroke="#263238" stroke-linecap="round" stroke-linejoin="round" stroke-width="1"/>
      <path id="Path_2005" data-name="Path 2005" d="M250.43,191.22l1.19,1.69,2.07-.02-1.24,1.66.66,1.96-1.96-.67-1.67,1.23.04-2.07-1.69-1.2,1.98-.61Z" transform="translate(1059.44 4322.496)" fill="none" stroke="#263238" stroke-linecap="round" stroke-linejoin="round" stroke-width="1"/>
      <rect id="Rectangle_276" data-name="Rectangle 276" width="28.03" height="20.55" transform="translate(1319.813 4509.568) rotate(-6.27)" fill="#a57d4b"/>
      <g id="Group_382" data-name="Group 382" transform="translate(1059.44 4322.496)" clip-path="url(#clip-path-3)">
        <rect id="Rectangle_277" data-name="Rectangle 277" width="28.03" height="20.55" transform="translate(260.373 187.072) rotate(-6.27)" fill="#fff" stroke="#263238" stroke-linecap="round" stroke-linejoin="round" stroke-width="1" opacity="0.5"/>
      </g>
      <rect id="Rectangle_279" data-name="Rectangle 279" width="28.03" height="20.55" transform="translate(1319.813 4509.568) rotate(-6.27)" fill="none" stroke="#263238" stroke-linecap="round" stroke-linejoin="round" stroke-width="1"/>
      <line id="Line_58" data-name="Line 58" y1="3.15" x2="27.73" transform="translate(1321.26 4519.606)" fill="none" stroke="#263238" stroke-linecap="round" stroke-linejoin="round" stroke-width="1"/>
      <path id="Path_2006" data-name="Path 2006" d="M284.61,190.37a3.05,3.05,0,1,1-3.56-2.44A3.05,3.05,0,0,1,284.61,190.37Z" transform="translate(1059.44 4322.496)" fill="none" stroke="#263238" stroke-linecap="round" stroke-linejoin="round" stroke-width="1"/>
      <rect id="Rectangle_280" data-name="Rectangle 280" width="91.06" height="66.75" transform="translate(1248.404 4436.66) rotate(-6.27)" fill="#a57d4b"/>
      <g id="Group_383" data-name="Group 383" transform="translate(1059.44 4322.496)" clip-path="url(#clip-path-4)">
        <path id="Path_2007" data-name="Path 2007" d="M194.15,161.42l21.75-21.1L231.8,151l9.28-8.99,44.81,20.69.86,7.87-90.51,9.94Z" fill="#757575" opacity="0.4"/>
        <path id="Path_2008" data-name="Path 2008" d="M267,126a6.5,6.5,0,1,1-7.17-5.75A6.5,6.5,0,0,1,267,126Z" fill="#fff" opacity="0.4"/>
        <path id="Path_2009" data-name="Path 2009" d="M194.15,161.42l21.75-21.1L231.8,151l9.28-8.99,44.81,20.69.86,7.87-90.51,9.94Z" fill="none" stroke="#263238" stroke-linecap="round" stroke-linejoin="round" stroke-width="1"/>
        <path id="Path_2010" data-name="Path 2010" d="M267,126a6.5,6.5,0,1,1-7.17-5.75A6.5,6.5,0,0,1,267,126Z" fill="none" stroke="#263238" stroke-linecap="round" stroke-linejoin="round" stroke-width="1"/>
      </g>
      <rect id="Rectangle_282" data-name="Rectangle 282" width="91.06" height="66.75" transform="translate(1248.404 4436.66) rotate(-6.27)" fill="none" stroke="#263238" stroke-linecap="round" stroke-linejoin="round" stroke-width="1"/>
      <path id="Path_2011" data-name="Path 2011" d="M231.82,100.25l1.14,3.86s-2.9,2-1.14,3.36l1.76,1.41s-1.18,4.13.79,5.22,8.51-.32,10.09-2.77-3.87-5-3.87-5,1.6-2,.71-2.93-4.06-.53-4.06-.53l-2.17-3.66Z" transform="translate(1059.44 4322.496)" fill="rgba(0,0,0,0.7)" opacity="0.3"/>
      <ellipse id="Ellipse_76" data-name="Ellipse 76" cx="7.34" cy="6.88" rx="7.34" ry="6.88" transform="translate(1285.06 4406.596)" fill="#263238"/>
      <path id="Path_2012" data-name="Path 2012" d="M239.73,96.77c0,2.76-3,5-6.77,5s-6.77-2.23-6.77-5,3-5,6.77-5S239.73,94,239.73,96.77Z" transform="translate(1059.44 4322.496)" fill="#263238"/>
      <path id="Path_2013" data-name="Path 2013" d="M237,95.52a6.15,6.15,0,0,0,1.91-2.24" transform="translate(1059.44 4322.496)" fill="none" stroke="#fff" stroke-linecap="round" stroke-linejoin="round" stroke-width="1"/>
      <path id="Path_2014" data-name="Path 2014" d="M227.15,93.58A7,7,0,0,0,233,96.77" transform="translate(1059.44 4322.496)" fill="none" stroke="#fff" stroke-linecap="round" stroke-linejoin="round" stroke-width="1"/>
    </g>
  </g>
</svg>
