<svg xmlns="http://www.w3.org/2000/svg" width="639.95" height="457.09" viewBox="0 0 639.95 457.09">
  <g id="Group_371" data-name="Group 371" transform="translate(-122 -496)">
    <rect id="Rectangle_196" data-name="Rectangle 196" width="591" height="385" rx="32" transform="translate(122 496)" fill="#fff" opacity="0.76"/>
    <g id="DrawKit_Vector_Illustration_Team_Work_19_" data-name="DrawKit Vector Illustration Team Work (19)" transform="translate(43.65 444)">
      <g id="background">
        <path id="Path_1261" data-name="Path 1261" d="M363.43,154.36a2.86,2.86,0,1,1-2.86-2.85,2.86,2.86,0,0,1,2.86,2.85Z" fill="#ddd"/>
        <line id="Line_8" data-name="Line 8" x2="55.52" transform="translate(376.68 154.36)" fill="none" stroke="#afafaf" stroke-linecap="round" stroke-linejoin="round" stroke-width="2"/>
        <path id="Path_1262" data-name="Path 1262" d="M363.43,167.59a2.85,2.85,0,1,1-.835-2.025,2.86,2.86,0,0,1,.835,2.025Z" fill="#ddd"/>
        <line id="Line_9" data-name="Line 9" x2="21.4" transform="translate(376.68 167.59)" fill="none" stroke="#afafaf" stroke-linecap="round" stroke-linejoin="round" stroke-width="2"/>
        <path id="Path_1263" data-name="Path 1263" d="M199.31,154.36a2.86,2.86,0,1,1-2.86-2.85,2.86,2.86,0,0,1,2.86,2.85Z" fill="#ddd"/>
        <line id="Line_10" data-name="Line 10" x2="73.97" transform="translate(212.57 154.36)" fill="none" stroke="#afafaf" stroke-linecap="round" stroke-linejoin="round" stroke-width="2"/>
        <circle id="Ellipse_61" data-name="Ellipse 61" cx="2.86" cy="2.86" r="2.86" transform="translate(193.59 164.73)" fill="#ddd"/>
        <line id="Line_11" data-name="Line 11" x2="35.81" transform="translate(212.57 167.59)" fill="none" stroke="#afafaf" stroke-linecap="round" stroke-linejoin="round" stroke-width="2"/>
        <path id="Path_1264" data-name="Path 1264" d="M199.31,181.06a2.86,2.86,0,1,1-2.86-2.85,2.86,2.86,0,0,1,2.86,2.85Z" fill="#ddd"/>
        <line id="Line_12" data-name="Line 12" x2="46.62" transform="translate(212.57 181.06)" fill="none" stroke="#afafaf" stroke-linecap="round" stroke-linejoin="round" stroke-width="2"/>
        <rect id="Rectangle_190" data-name="Rectangle 190" width="122.54" height="14.99" transform="translate(352.59 123.2)" fill="none" stroke="#afafaf" stroke-linecap="round" stroke-linejoin="round" stroke-width="1"/>
        <rect id="Rectangle_191" data-name="Rectangle 191" width="122.54" height="14.99" transform="translate(191.61 123.2)" fill="none" stroke="#afafaf" stroke-linecap="round" stroke-linejoin="round" stroke-width="1"/>
        <rect id="Rectangle_192" data-name="Rectangle 192" width="497.17" height="317" transform="translate(140 94.52)" fill="none" stroke="#afafaf" stroke-linecap="round" stroke-linejoin="round" stroke-width="2"/>
        <rect id="Rectangle_193" data-name="Rectangle 193" width="513.72" height="13.86" transform="translate(131.72 411.92)" fill="none" stroke="#afafaf" stroke-linecap="round" stroke-linejoin="round" stroke-width="2"/>
        <rect id="Rectangle_194" data-name="Rectangle 194" width="513.72" height="13.86" transform="translate(131.72 80.66)" fill="none" stroke="#afafaf" stroke-linecap="round" stroke-linejoin="round" stroke-width="2"/>
        <path id="Path_1265" data-name="Path 1265" d="M565.39,140.18c-23.23-9.5-34.75,17.13-26,33.86,2.06,3.92,1.76,7.11-.19,11.87s-2,8.16,3.27,10.3,7.6-.3,9.55-5.06,4-7.24,8.18-8.6C578.18,176.75,588.63,149.68,565.39,140.18Z" fill="#f9f9f9" stroke="#afafaf" stroke-linecap="round" stroke-linejoin="round" stroke-width="1"/>
        <path id="Path_1266" data-name="Path 1266" d="M545.08,191.08c-1.35-5.67-.9-9.61,3.16-10.57s7.32-3.26,5.54-6.23-9.16-3.66-7.14-.06,12.65,2.31,10.16-1.21-8.43-6.44-6-7,9.86,2.8,7.46.18c-4.82-5.25.81-6.36,2.36-12" fill="none" stroke="#afafaf" stroke-linecap="round" stroke-linejoin="round" stroke-width="1"/>
        <path id="Path_1267" data-name="Path 1267" d="M555,189.42a30.311,30.311,0,0,0-2.12,4.34,22.94,22.94,0,0,1-1.6,3.29c-2.22,3.73-5.19,5.22-10.44,3.08s-6.3-5.29-5.27-9.5a22.156,22.156,0,0,1,1.16-3.48,32.652,32.652,0,0,0,1.53-4.57A49.439,49.439,0,0,0,555,189.42Z" fill="#f9f9f9" stroke="#afafaf" stroke-linecap="round" stroke-linejoin="round" stroke-width="1"/>
        <path id="Path_1268" data-name="Path 1268" d="M555,189.42a27.52,27.52,0,0,0-1.91,3.88c-.08.15-.14.31-.21.46a22.94,22.94,0,0,1-1.6,3.29c-2.15.48-4.91.08-8.59-1.43s-5.93-3.15-7.12-5a22.156,22.156,0,0,1,1.16-3.48l.18-.47a30.5,30.5,0,0,0,1.35-4.1A49.44,49.44,0,0,0,555,189.42Z" fill="#f9f9f9" stroke="#afafaf" stroke-linecap="round" stroke-linejoin="round" stroke-width="1"/>
        <path id="Path_1269" data-name="Path 1269" d="M555,189.42a27.52,27.52,0,0,0-1.91,3.88,43.481,43.481,0,0,1-16.18-6.62,30.509,30.509,0,0,0,1.35-4.1A49.439,49.439,0,0,0,555,189.42Z" fill="#f9f9f9" stroke="#afafaf" stroke-linecap="round" stroke-linejoin="round" stroke-width="1"/>
        <line id="Line_13" data-name="Line 13" y1="10.75" x2="4.39" transform="translate(569.34 123.2)" fill="none" stroke="#afafaf" stroke-linecap="round" stroke-linejoin="round" stroke-width="2"/>
        <line id="Line_14" data-name="Line 14" y1="1.52" x2="10.57" transform="translate(586.4 148.93)" fill="none" stroke="#afafaf" stroke-linecap="round" stroke-linejoin="round" stroke-width="2"/>
        <line id="Line_15" data-name="Line 15" x1="9.45" y1="10.13" transform="translate(529.91 125.67)" fill="none" stroke="#afafaf" stroke-linecap="round" stroke-linejoin="round" stroke-width="2"/>
        <line id="Line_16" data-name="Line 16" y1="7.14" transform="translate(554.47 124.41)" fill="none" stroke="#afafaf" stroke-linecap="round" stroke-linejoin="round" stroke-width="1"/>
        <line id="Line_17" data-name="Line 17" x1="7.93" y2="1.14" transform="translate(521.95 152.83)" fill="none" stroke="#afafaf" stroke-linecap="round" stroke-linejoin="round" stroke-width="1"/>
        <line id="Line_18" data-name="Line 18" x2="2.92" y2="5.01" transform="translate(582.32 172.6)" fill="none" stroke="#afafaf" stroke-linecap="round" stroke-linejoin="round" stroke-width="1"/>
        <line id="Line_19" data-name="Line 19" y1="2.71" x2="5.71" transform="translate(580.26 139.39)" fill="none" stroke="#afafaf" stroke-linecap="round" stroke-linejoin="round" stroke-width="1"/>
        <path id="Path_1270" data-name="Path 1270" d="M180.6,189.72H157.18a46.94,46.94,0,0,0,1.66,26.55l24.55-.39S176.77,201.5,180.6,189.72Z" fill="#ddd" stroke="#afafaf" stroke-miterlimit="10" stroke-width="1"/>
        <line id="Line_20" data-name="Line 20" x1="11.92" transform="translate(163.4 196.34)" fill="none" stroke="#afafaf" stroke-linecap="round" stroke-linejoin="round" stroke-width="1"/>
        <line id="Line_21" data-name="Line 21" x1="9.01" transform="translate(165.55 201.51)" fill="none" stroke="#afafaf" stroke-linecap="round" stroke-linejoin="round" stroke-width="1"/>
        <line id="Line_22" data-name="Line 22" x1="12.49" transform="translate(162.65 206.44)" fill="none" stroke="#afafaf" stroke-linecap="round" stroke-linejoin="round" stroke-width="1"/>
        <path id="Path_1271" data-name="Path 1271" d="M162.8,150.6h22.54a31,31,0,0,1-3.92,23.08l-24.39-1S164.47,162,162.8,150.6Z" fill="none" stroke="#afafaf" stroke-linecap="round" stroke-linejoin="round" stroke-width="1"/>
        <line id="Line_23" data-name="Line 23" x2="14.72" transform="translate(166.92 155.99)" fill="none" stroke="#afafaf" stroke-linecap="round" stroke-linejoin="round" stroke-width="1"/>
        <line id="Line_24" data-name="Line 24" x2="11.75" transform="translate(167.13 160.93)" fill="none" stroke="#afafaf" stroke-linecap="round" stroke-linejoin="round" stroke-width="1"/>
        <line id="Line_25" data-name="Line 25" x2="5.55" transform="translate(166.92 167.39)" fill="none" stroke="#afafaf" stroke-linecap="round" stroke-linejoin="round" stroke-width="1"/>
        <line id="Line_26" data-name="Line 26" x2="3.69" transform="translate(173.73 167.39)" fill="none" stroke="#afafaf" stroke-linecap="round" stroke-linejoin="round" stroke-width="1"/>
        <path id="Path_1272" data-name="Path 1272" d="M218.33,224.56l22.55.05A31,31,0,0,1,237,247.68l-24.38-1S220,235.94,218.33,224.56Z" fill="none" stroke="#afafaf" stroke-linecap="round" stroke-linejoin="round" stroke-width="1"/>
        <line id="Line_27" data-name="Line 27" x2="14.72" transform="translate(222.45 229.96)" fill="none" stroke="#afafaf" stroke-linecap="round" stroke-linejoin="round" stroke-width="1"/>
        <line id="Line_28" data-name="Line 28" x2="11.75" transform="translate(222.66 234.89)" fill="none" stroke="#afafaf" stroke-linecap="round" stroke-linejoin="round" stroke-width="1"/>
        <line id="Line_29" data-name="Line 29" x2="5.55" transform="translate(222.45 241.35)" fill="none" stroke="#afafaf" stroke-linecap="round" stroke-linejoin="round" stroke-width="1"/>
        <line id="Line_30" data-name="Line 30" x2="3.69" transform="translate(229.26 241.35)" fill="none" stroke="#afafaf" stroke-linecap="round" stroke-linejoin="round" stroke-width="1"/>
        <path id="Path_1273" data-name="Path 1273" d="M406,236.12h22.54a31,31,0,0,1-3.92,23.07l-24.39-1S407.66,247.5,406,236.12Z" fill="none" stroke="#afafaf" stroke-linecap="round" stroke-linejoin="round" stroke-width="1"/>
        <line id="Line_31" data-name="Line 31" x2="14.72" transform="translate(410.11 241.52)" fill="none" stroke="#afafaf" stroke-linecap="round" stroke-linejoin="round" stroke-width="1"/>
        <line id="Line_32" data-name="Line 32" x2="11.75" transform="translate(410.32 246.45)" fill="none" stroke="#afafaf" stroke-linecap="round" stroke-linejoin="round" stroke-width="1"/>
        <line id="Line_33" data-name="Line 33" x2="5.55" transform="translate(410.11 252.91)" fill="none" stroke="#afafaf" stroke-linecap="round" stroke-linejoin="round" stroke-width="1"/>
        <line id="Line_34" data-name="Line 34" x2="3.69" transform="translate(416.92 252.91)" fill="none" stroke="#afafaf" stroke-linecap="round" stroke-linejoin="round" stroke-width="1"/>
        <path id="Path_1274" data-name="Path 1274" d="M482,148.47l-22.54.05a31,31,0,0,0,3.92,23.07l24.39-1S480.35,159.85,482,148.47Z" fill="none" stroke="#afafaf" stroke-linecap="round" stroke-linejoin="round" stroke-width="1"/>
        <line id="Line_35" data-name="Line 35" x1="14.72" transform="translate(463.18 153.87)" fill="none" stroke="#afafaf" stroke-linecap="round" stroke-linejoin="round" stroke-width="1"/>
        <line id="Line_36" data-name="Line 36" x1="11.74" transform="translate(465.95 158.8)" fill="none" stroke="#afafaf" stroke-linecap="round" stroke-linejoin="round" stroke-width="1"/>
        <line id="Line_37" data-name="Line 37" x1="5.55" transform="translate(472.35 165.26)" fill="none" stroke="#afafaf" stroke-linecap="round" stroke-linejoin="round" stroke-width="1"/>
        <line id="Line_38" data-name="Line 38" x1="3.69" transform="translate(467.4 165.26)" fill="none" stroke="#afafaf" stroke-linecap="round" stroke-linejoin="round" stroke-width="1"/>
        <line id="Line_39" data-name="Line 39" y2="236.01" transform="translate(333.99 120.44)" fill="none" stroke="#afafaf" stroke-linecap="round" stroke-linejoin="round" stroke-width="1"/>
      </g>
      <g id="Man" transform="translate(-6.586 37.441)">
        <g id="hand" transform="translate(413.62 133.339)">
          <path id="Path_1275" data-name="Path 1275" d="M446.954,173.188c-4.681-13.865-6.744-18.829-9.414-21.833s-10.227-6.2-10.227-6.2-3.15-12.2-7.181-11.811,2.653,16.629,2.653,16.629l-3.543,15.936A24.758,24.758,0,0,1,421.9,171.9c2.756,9.055,10.313,9.911,12.393,17.511C434.168,188.978,446.912,181.344,446.954,173.188Z" transform="translate(-414.372 -133.339)" fill="#febd9d"/>
          <path id="Path_1276" data-name="Path 1276" d="M446.954,173.188c-4.681-13.865-6.744-18.829-9.414-21.833s-10.227-6.2-10.227-6.2-3.15-12.2-7.181-11.811,2.653,16.629,2.653,16.629l-3.543,15.936A24.758,24.758,0,0,1,421.9,171.9c2.756,9.055,10.313,9.911,12.393,17.511C434.168,188.978,446.912,181.344,446.954,173.188Z" transform="translate(-414.372 -133.339)" fill="#febd9d"/>
          <path id="Path_1277" data-name="Path 1277" d="M437.55,151.355c-2.653-3.055-10.227-6.2-10.227-6.2s-3.149-12.2-7.181-11.811,2.653,16.629,2.653,16.629l-3.543,15.936" transform="translate(-414.374 -133.339)" fill="none" stroke="#757575" stroke-linecap="round" stroke-linejoin="round" stroke-width="0.75"/>
          <path id="Path_1278" data-name="Path 1278" d="M414.493,164.034c3.329-2.636,9.038,7.018,5.589,9.654C417.608,175.579,411.326,166.507,414.493,164.034Z" transform="translate(-413.62 -137.699)" fill="#febd9d" stroke="#757575" stroke-miterlimit="10" stroke-width="1"/>
          <path id="Path_1279" data-name="Path 1279" d="M428.376,147.124c-2.653-1.044-2.987,3.423-.668,5.135s3.8,2.071,4.134,3.149.993,4.459.993,4.459a16.073,16.073,0,0,0,1.121,13.077" transform="translate(-415.428 -135.304)" fill="none" stroke="#757575" stroke-linecap="round" stroke-linejoin="round" stroke-width="0.75"/>
          <path id="Path_1280" data-name="Path 1280" d="M417.422,157.6c3.329-2.636,10.381,9.414,6.932,12.033C421.89,171.513,414.256,160.1,417.422,157.6Z" transform="translate(-414.059 -136.782)" fill="#febd9d" stroke="#757575" stroke-miterlimit="10" stroke-width="1"/>
          <path id="Path_1281" data-name="Path 1281" d="M420.8,153.037c3.329-2.636,10.39,9.414,6.941,12.033C425.279,166.953,417.645,155.519,420.8,153.037Z" transform="translate(-414.547 -136.125)" fill="#febd9d" stroke="#757575" stroke-miterlimit="10" stroke-width="1"/>
          <path id="Path_1282" data-name="Path 1282" d="M436.693,204.9l-4.493-8.772s10.989-7.523,16.68-16.261l3.774,6.325S448.144,206.025,436.693,204.9Z" transform="translate(-416.298 -140.047)" fill="#fff"/>
          <path id="Path_1283" data-name="Path 1283" d="M502.379,248.044c-15.328-22.089-34.961-43.828-37.751-46.866a9.166,9.166,0,0,0-5.82-3.167l-6.847-12.162s-7.472,11.126-19.761,17.117l6.213,11.913s-1.9,1.446,2.277,10.219,20.343,42.279,28.517,48.928C488.754,289.929,522.526,277.083,502.379,248.044Z" transform="translate(-416.298 -140.909)" fill="#c3d3e4"/>
          <line id="Line_40" data-name="Line 40" x1="6.915" y1="11.092" transform="translate(25.153 56.084)" fill="none" stroke="#757575" stroke-linecap="round" stroke-linejoin="round" stroke-width="0.75"/>
          <line id="Line_41" data-name="Line 41" x1="6.795" y1="10.895" transform="translate(21.148 59.037)" fill="none" stroke="#757575" stroke-linecap="round" stroke-linejoin="round" stroke-width="0.75"/>
          <line id="Line_42" data-name="Line 42" x2="7.292" y2="11.699" transform="translate(32.582 48.869)" fill="none" stroke="#757575" stroke-linecap="round" stroke-linejoin="round" stroke-width="0.75"/>
          <line id="Line_43" data-name="Line 43" x2="7.3" y2="11.699" transform="translate(28.927 52.558)" fill="none" stroke="#757575" stroke-linecap="round" stroke-linejoin="round" stroke-width="0.75"/>
          <path id="Path_1284" data-name="Path 1284" d="M505.708,248.044c-15.328-22.089-34.961-43.828-37.751-46.866a9.166,9.166,0,0,0-5.82-3.167L455.29,185.85" transform="translate(-419.627 -140.909)" fill="none" stroke="#757575" stroke-linecap="round" stroke-linejoin="round" stroke-width="0.75"/>
        </g>
        <g id="body" transform="translate(464.664 208.532)">
          <path id="Path_1285" data-name="Path 1285" d="M666.936,491.671H582.31V424.993l75.682-1.053C663.82,448.528,666.936,491.671,666.936,491.671Z" transform="translate(-488.982 -250.424)" fill="#757575"/>
          <path id="Path_1286" data-name="Path 1286" d="M628.662,497.628s-2.773-26.856-3.055-29.415a3.115,3.115,0,0,0-2.636-2.7,12.2,12.2,0,0,0-4.921,0" transform="translate(-494.134 -256.38)" fill="none" stroke="#91613d" stroke-linecap="round" stroke-linejoin="round" stroke-width="0.75"/>
          <path id="Path_1287" data-name="Path 1287" d="M657.309,305.019c-1.352,22.329-5.991,57.042-9.2,79.157-1.806,12.452-3.132,20.917-3.132,20.917s-54.149,2.105-68.861,1.712-16.321-1.481-16.321-7.412.248-80,.248-80S487.4,293.722,476.94,285s2.063-37.383,28.953-31.5c6.761,1.481,13.48,2.987,20.343,4.5,20.4,4.527,42.048,9.08,69.186,12.932,29.475,4.211,47.927,4.45,60.525,12.735C657.814,284.889,658.028,293.234,657.309,305.019Z" transform="translate(-473.262 -225.74)" fill="#c3d3e4"/>
          <path id="Path_1288" data-name="Path 1288" d="M660.749,340.06c-11.443,7.258-11.468,17.468-6.992,25.376,10.321,18.2-19.684,6.376-20.977,28.953l43.443-10.321Z" transform="translate(-496.258 -238.332)" fill="#c3d3e4"/>
          <path id="Path_1289" data-name="Path 1289" d="M682.117,312.912a65.4,65.4,0,0,0-15.884-6.958c-9.234-2.568-18.144-2.028-24.058,4.065a18.83,18.83,0,0,0-2.747,3.6c-14.815,24.819-56.237,20.292-63.914-5.88-6.53-22.252-16.6-36.082-40.353-48.783,20.4,4.467,42.047,9.021,69.186,12.872,29.475,4.211,47.927,4.45,60.525,12.735C670.708,287.032,676.793,298.312,682.117,312.912Z" transform="translate(-482.185 -226.641)" fill="#c3d3e4"/>
          <path id="Path_1290" data-name="Path 1290" d="M616.285,272.11c-9.654,0-17.485,6.171-17.485,13.77,0,4.279,2.482,8.113,6.385,10.638a18.89,18.89,0,0,0,6.171,2.568,21.491,21.491,0,0,0,4.93.556h1.087a20.94,20.94,0,0,0,6.787-1.446,17.4,17.4,0,0,0,5.554-3.423,12.119,12.119,0,0,0,4.074-8.841C633.787,278.281,625.956,272.11,616.285,272.11Zm5.794,20.446a19.315,19.315,0,0,1-5.272.856h-.522a19.771,19.771,0,0,1-4.168-.428,15.757,15.757,0,0,1-5-1.9c-2.482-1.5-4.022-3.6-4.022-5.931,0-4.57,5.905-8.267,13.189-8.267s13.2,3.7,13.2,8.267a6.745,6.745,0,0,1-3.064,5.289A13.872,13.872,0,0,1,622.079,292.556Z" transform="translate(-491.359 -228.537)" fill="none" stroke="#fff" stroke-linecap="round" stroke-linejoin="round" stroke-width="0.75"/>
          <path id="Path_1291" data-name="Path 1291" d="M607.358,268c-3.269.625-6.907,1.712-8.73,4.844s-1.909,16.184-.24,17.613,3.894-5.4,13.848-8.73Z" transform="translate(-491.128 -227.944)" fill="#fff"/>
          <path id="Path_1292" data-name="Path 1292" d="M624.55,282.056,634.709,266s5.392,2.858,6.265,8.019-1.489,22.081-5.768,17.793C632.167,288.817,632.852,286.343,624.55,282.056Z" transform="translate(-495.071 -227.656)" fill="#fff"/>
          <line id="Line_44" data-name="Line 44" y1="5.46" x2="1.934" transform="translate(113.825 62.522)" fill="none" stroke="#fff" stroke-linecap="round" stroke-linejoin="round" stroke-width="0.75"/>
          <line id="Line_45" data-name="Line 45" y1="6.136" x2="0.762" transform="translate(119.996 64.422)" fill="none" stroke="#fff" stroke-linecap="round" stroke-linejoin="round" stroke-width="0.75"/>
          <line id="Line_46" data-name="Line 46" x1="0.565" y1="6.248" transform="translate(125.448 64.841)" fill="none" stroke="#fff" stroke-linecap="round" stroke-linejoin="round" stroke-width="0.75"/>
          <line id="Line_47" data-name="Line 47" x1="2.08" y1="5.64" transform="translate(130.72 64.002)" fill="none" stroke="#fff" stroke-linecap="round" stroke-linejoin="round" stroke-width="0.75"/>
          <line id="Line_48" data-name="Line 48" x1="3.295" y1="4.305" transform="translate(135.059 61.88)" fill="none" stroke="#fff" stroke-linecap="round" stroke-linejoin="round" stroke-width="0.75"/>
          <path id="Path_1293" data-name="Path 1293" d="M633.459,261.715c.077,2-4.005,15.165-15.337,16.261S605.131,266.73,605.2,263.487c0-1.309.146-3.62.308-6.513.223-3.971.522-9.029.745-14.044l.051-1.1c1.25-29.1,26.232-23.287,24.674-7.865C630.028,243.477,633.365,259.721,633.459,261.715Z" transform="translate(-492.282 -221.197)" fill="#febd9d"/>
          <path id="Path_1294" data-name="Path 1294" d="M605.56,260.274c.223-3.971.522-9.029.745-14.044l13.839-2.14C620.648,252.914,616.386,260.505,605.56,260.274Z" transform="translate(-492.334 -224.497)" fill="#f4a789"/>
          <path id="Path_1295" data-name="Path 1295" d="M669.554,380.9a2.481,2.481,0,0,0-.137-.522c-3.877-15.585-7.095-31.889-8.447-46.121" transform="translate(-500.322 -237.496)" fill="none" stroke="#757575" stroke-linecap="round" stroke-linejoin="round" stroke-width="0.75"/>
          <path id="Path_1296" data-name="Path 1296" d="M596.954,363.779c-1.25-5.426,2.02-7.018,4.87-7.994-.265-1.532.3-4.014,3.7-4.544,3.218-.5,4.373,2.662,4.373,2.662s6.77-2.294,8.481,4.6Z" transform="translate(-491.054 -239.936)" fill="#ddd"/>
          <path id="Path_1297" data-name="Path 1297" d="M577.79,365.679l51.136-11.819,19.393,82.169-51.582,10.381Z" transform="translate(-488.331 -240.322)" fill="#f9f9f9" stroke="#ddd" stroke-linecap="round" stroke-linejoin="round" stroke-width="1"/>
          <path id="Path_1298" data-name="Path 1298" d="M605,355.734a2.3,2.3,0,1,0,2.3-2.294A2.3,2.3,0,0,0,605,355.734Z" transform="translate(-492.253 -240.261)" fill="#f9f9f9" stroke="#ddd" stroke-linecap="round" stroke-linejoin="round" stroke-width="1"/>
        </g>
        <g id="upper_hand" data-name="upper hand" transform="translate(624.619 264.467)">
          <path id="Path_1299" data-name="Path 1299" d="M715.653,390.775h0a43.973,43.973,0,0,1-.223,4.878v.24a7.992,7.992,0,0,1-.222.976c-2.088,6.847-15.3,13.308-27.575,6.2a25.815,25.815,0,0,1-3.081-2.1,36.716,36.716,0,0,1-9.508-11.982,68.8,68.8,0,0,1-5.606-14.969,2.481,2.481,0,0,0-.137-.522c-5.135-20.78-9.175-42.843-9.14-59.541,0-20.129,5.931-32.471,22.731-25.4,5.8,2.448,11.888,13.693,17.211,28.294A294.521,294.521,0,0,1,710.98,355.6C713.941,369.268,715.653,382.088,715.653,390.775Z" transform="translate(-660.16 -286.554)" fill="#c3d3e4"/>
          <path id="Path_1300" data-name="Path 1300" d="M719.579,407.309v.24a8.025,8.025,0,0,1-.223.976c-2.088,6.847-15.3,13.308-27.575,6.2a25.819,25.819,0,0,1-3.081-2.1,22.431,22.431,0,0,1,12.153-2.422c22.586,2.037-1.378-22.911,14.3-42.98,2.884,13.693,4.647,26.488,4.673,35.175h0a21.183,21.183,0,0,1-.248,4.9Z" transform="translate(-664.274 -298.184)" fill="#c3d3e4"/>
          <path id="Path_1301" data-name="Path 1301" d="M700.142,316.9a65.4,65.4,0,0,0-15.884-6.958c-9.234-2.568-18.144-2.028-24.058,4.065,0-20.129,5.931-32.471,22.731-25.4C688.734,291.015,694.819,302.3,700.142,316.9Z" transform="translate(-660.166 -286.56)" fill="#c3d3e4"/>
        </g>
        <g id="hand-2" data-name="hand" transform="translate(548.065 349.984)">
          <path id="Path_1302" data-name="Path 1302" d="M601.829,407.785c-1.4-.856-9.654-5.631-12.05-5.785s-7.506,3.381-7.506,3.381-10.142.6-11.263,2.4,1.155,4.348,2.9,5.255.1,2.773.325,4.279,2.105,2.568,2.328,3.6-.753,3.86,1.575,4.553.856,2.122,2.028,4.151,8.336,1.652,26.531-1.951Z" transform="translate(-570.711 -388.713)" fill="#febd9d"/>
          <path id="Path_1303" data-name="Path 1303" d="M589.788,402c-2.4-.146-7.506,3.381-7.506,3.381s-10.142.6-11.263,2.4,1.155,4.348,2.9,5.255.1,2.773.325,4.279,2.105,2.568,2.328,3.6-.753,3.86,1.575,4.553.856,2.122,2.028,4.151c.471.8,1.866,1.224,4.485,1.224" transform="translate(-570.713 -388.713)" fill="none" stroke="#757575" stroke-linecap="round" stroke-linejoin="round" stroke-width="0.75"/>
          <path id="Path_1304" data-name="Path 1304" d="M605.58,406.743l3.654,23.382,7.711-1.138-2.4-22.817Z" transform="translate(-575.738 -389.315)" fill="#fff"/>
          <path id="Path_1305" data-name="Path 1305" d="M708.539,410.323c-.068.325-.137.659-.223.976-2.037,8.019-10.63,13.206-34.182,14.849q-3.081.223-6.1.394c-27.935,1.66-52.1,1.181-52.1,1.181L612.3,402.74c12.666-3.757,33.712-10.878,50.272-14.31,6.847-1.412,12.88-2.208,17.288-1.883a69.319,69.319,0,0,1,14.84,2.439,31.166,31.166,0,0,1,3.783,1.361c5.666,2.568,9.474,6.607,10.193,13.2.06.548.1,1.1.145,1.618h0A21.744,21.744,0,0,1,708.539,410.323Z" transform="translate(-576.707 -386.475)" fill="#c3d3e4"/>
          <path id="Path_1306" data-name="Path 1306" d="M679.86,386.548c-4.408-.325-10.467.471-17.288,1.883-16.56,3.423-37.606,10.553-50.272,14.31l3.637,24.982" transform="translate(-576.707 -386.475)" fill="none" stroke="#757575" stroke-linecap="round" stroke-linejoin="round" stroke-width="0.75"/>
          <line id="Line_49" data-name="Line 49" y1="2.371" x2="14.823" transform="translate(36.03 16.855)" fill="none" stroke="#757575" stroke-linecap="round" stroke-linejoin="round" stroke-width="0.75"/>
          <line id="Line_50" data-name="Line 50" y1="1.797" x2="14.404" transform="translate(36.731 22.23)" fill="none" stroke="#757575" stroke-linecap="round" stroke-linejoin="round" stroke-width="0.75"/>
          <line id="Line_51" data-name="Line 51" y1="1.207" x2="14.224" transform="translate(37.262 26.509)" fill="none" stroke="#757575" stroke-linecap="round" stroke-linejoin="round" stroke-width="0.75"/>
          <line id="Line_52" data-name="Line 52" y1="1.061" x2="13.728" transform="translate(38.049 32.064)" fill="none" stroke="#757575" stroke-linecap="round" stroke-linejoin="round" stroke-width="0.75"/>
          <line id="Line_53" data-name="Line 53" y1="1.352" x2="13.462" transform="translate(38.811 36.18)" fill="none" stroke="#757575" stroke-linecap="round" stroke-linejoin="round" stroke-width="0.75"/>
          <path id="Path_1307" data-name="Path 1307" d="M584.22,405.911c3.672-.377,6.975-.531,6.975-.531" transform="translate(-572.659 -389.201)" fill="none" stroke="#757575" stroke-linecap="round" stroke-linejoin="round" stroke-width="0.75"/>
          <path id="Path_1308" data-name="Path 1308" d="M717.927,410.978a8.025,8.025,0,0,1-.223.976c-2.037,8.019-10.63,13.206-34.182,14.849q-3.081.223-6.1.394c5.238-12.957,16.869-14,21.781-13.557,15.123,1.369,9.414-9.354,8.635-22.62,5.666,2.568,9.474,6.607,10.193,13.2.06.548.1,1.1.146,1.618h0a21.748,21.748,0,0,1-.248,5.144Z" transform="translate(-586.094 -387.131)" fill="#c3d3e4"/>
        </g>
        <g id="head" transform="translate(565.781 184.37)">
          <path id="Path_1309" data-name="Path 1309" d="M628.017,211.473a59.123,59.123,0,0,1-2.987,12.17c-2.217,5.768-5.8,10.809-11.648,10.766a11.6,11.6,0,0,1-1.84-.171L596,227.862s.068-.3.223-.856a43.646,43.646,0,0,1,4.75-10.741c.18-.282.377-.565.565-.856,3.7-5.606,7.394-10.09,7.394-10.09s.214-5.366,4.6-6.154S629.232,203.291,628.017,211.473Z" transform="translate(-592.072 -193.848)" fill="#febd9d"/>
          <path id="Path_1310" data-name="Path 1310" d="M627.32,227.048c-2.217,5.768-5.8,10.809-11.648,10.766a8.2,8.2,0,1,1,11.648-10.766Z" transform="translate(-594.362 -197.253)" fill="#f4af90"/>
          <path id="Path_1311" data-name="Path 1311" d="M602.153,222.991a7.052,7.052,0,0,1-5.861,6.949A43.65,43.65,0,0,1,601.04,219.2a6.983,6.983,0,0,1,1.113,3.791Z" transform="translate(-592.114 -196.748)" fill="#f4af90"/>
          <path id="Path_1312" data-name="Path 1312" d="M637.4,211.7c-.7,2-3.09,8.173-4.408,11.571-.539,1.378-.907,2.3-.907,2.3l-3.783-1.378-2.713-.984-.958-.342a8.484,8.484,0,0,1-.1,1.1,44.862,44.862,0,0,1-1.5,7.7,27.812,27.812,0,0,1-4.134,8.747c-5.135,6.847-18.469,6.145-24.623.856-4.279-3.714-3.423-10.51.3-17.579a50.29,50.29,0,0,1,6.325-9.123s-3,7.044-3.492,8.558c-.591,1.891,1.626,1.712,2.482.1s2.508-2.722,7.3-1.438,6.744,3.766,5.854,7.232c-.522,2.045,3.278,2.756,6.076.06a6.983,6.983,0,0,0,.668-.736,8.21,8.21,0,0,0,.984-1.541,51.811,51.811,0,0,0,4.211-16.381c-2.867.18-5.34-2-3.714-4.716-3.363,1.412-5.862-1-5.289-4.219-1.455,2.285-4.724,2.14-5.135-.565l-2.568,3.509a10.981,10.981,0,0,1-.685-4.159,4.988,4.988,0,0,1,6.7-4.853c.445-3.09,7.7-3.706,8.233.71a3.7,3.7,0,0,1,6.847,2.157,3.577,3.577,0,0,1,4.9,4.767c2.354-.513,3.86,2.568,1.831,4.776A2.92,2.92,0,0,1,637.4,211.7Z" transform="translate(-591.411 -192.966)" fill="#bf8228"/>
          <path id="Path_1313" data-name="Path 1313" d="M616,218.807a1.147,1.147,0,1,0,1.147-1.147A1.147,1.147,0,0,0,616,218.807Z" transform="translate(-594.955 -196.526)" fill="#683f1d"/>
          <path id="Path_1314" data-name="Path 1314" d="M607.43,215.938a1.147,1.147,0,1,0,1.138-1.138A1.147,1.147,0,0,0,607.43,215.938Z" transform="translate(-593.72 -196.114)" fill="#683f1d"/>
          <path id="Path_1315" data-name="Path 1315" d="M618.693,211.776c-.591,2.045,5.409,4.065,5.666,2.816C624.547,213.694,619.566,208.747,618.693,211.776Z" transform="translate(-595.338 -195.538)" fill="#bf8228"/>
          <path id="Path_1316" data-name="Path 1316" d="M608.757,208.663c-.351,1.1,4.69,2.987,5.281,1.147C614.739,207.619,609.065,207.722,608.757,208.663Z" transform="translate(-593.909 -195.137)" fill="#bf8228"/>
          <path id="Path_1317" data-name="Path 1317" d="M631.031,224.942l-3.672-1.327a43.89,43.89,0,0,1-1.6,8.832c-1.19.18-2.568-.445-3.911-2.568A8.139,8.139,0,0,0,623.5,227.6a51.81,51.81,0,0,0,4.211-16.381c-2.867.18-5.34-2-3.714-4.716-3.363,1.412-5.862-1-5.289-4.219-1.455,2.285-4.724,2.14-5.135-.565L611,205.232a10.98,10.98,0,0,1-.685-4.159c1.386-1.412,3.286-2.388,4.878-1.9,0,0,4.185,1.01,5.657-.993-.813,3.218,2.473,6.282,6.35,4.964,0,0,1.352,5.845,6.085,5.837,0,0-.513,5.229,2.191,5.708C637.526,215.04,633.393,220.937,631.031,224.942Z" transform="translate(-594.136 -193.718)" fill="#b57724"/>
          <path id="Path_1318" data-name="Path 1318" d="M624.531,229.144a44.874,44.874,0,0,1-1.5,7.7,27.815,27.815,0,0,1-4.134,8.747c-5.135,6.847-18.469,6.145-24.623.856-4.279-3.714-3.423-10.51.3-17.579.531,12.23,12.153,19.239,24.546,5.435l.667-.736a38.7,38.7,0,0,1,4.741-4.425Z" transform="translate(-591.411 -198.142)" fill="#b57724"/>
          <path id="Path_1319" data-name="Path 1319" d="M638.753,228.08c-.539,1.378-.907,2.3-.907,2.3L634.063,229l-2.713-.984C635.544,225.239,637.675,226.437,638.753,228.08Z" transform="translate(-597.168 -197.78)" fill="#b57724"/>
          <path id="Path_1320" data-name="Path 1320" d="M628.54,235.9a43.6,43.6,0,0,0,1.446-8.259c2.362-2.14,6.5-2.071,8.4.308a4.613,4.613,0,0,1,.95,2.285C640.06,235.428,635.72,240.9,628.54,235.9Z" transform="translate(-596.763 -197.742)" fill="#febd9d"/>
          <path id="Path_1321" data-name="Path 1321" d="M633.975,239.518a9.329,9.329,0,0,1-5.435-1.968" transform="translate(-596.763 -199.393)" fill="none" stroke="#ef8a66" stroke-linecap="round" stroke-linejoin="round" stroke-width="0.75"/>
          <path id="Path_1322" data-name="Path 1322" d="M605.19,221c.377-2.174,1.583-2.174,3.86-2.568s4.04-2.422,3.791-4.476" transform="translate(-593.397 -195.993)" fill="none" stroke="#ef8a66" stroke-linecap="round" stroke-linejoin="round" stroke-width="0.75"/>
          <path id="Path_1323" data-name="Path 1323" d="M632.05,231.806a3.483,3.483,0,0,1,5.606.591" transform="translate(-597.269 -198.399)" fill="none" stroke="#ef8a66" stroke-linecap="round" stroke-linejoin="round" stroke-width="0.75"/>
          <path id="Path_1324" data-name="Path 1324" d="M633.242,231.1c3.885-.368,3.295,5.469-.462,4.39" transform="translate(-597.374 -198.461)" fill="none" stroke="#ef8a66" stroke-linecap="round" stroke-linejoin="round" stroke-width="0.75"/>
          <path id="Path_1325" data-name="Path 1325" d="M592.37,246c3.663-2.456,8.558-1.215,12.5,2.311,5.246,4.69,13.822,0,13.822,0" transform="translate(-591.549 -200.427)" fill="none" stroke="#9b621f" stroke-linecap="round" stroke-linejoin="round" stroke-width="0.75"/>
          <path id="Path_1326" data-name="Path 1326" d="M622.48,240.36c-2.14,1.712-10.27,6.427-16.124,2.071s-14.686,1.1-14.686,1.1" transform="translate(-591.448 -199.798)" fill="none" stroke="#9b621f" stroke-linecap="round" stroke-linejoin="round" stroke-width="0.75"/>
          <path id="Path_1327" data-name="Path 1327" d="M591.86,236.847c1.891-1.712,8.781-5.366,13.266-.488s10.33.419,10.33.419" transform="translate(-591.475 -198.87)" fill="none" stroke="#9b621f" stroke-linecap="round" stroke-linejoin="round" stroke-width="0.75"/>
          <path id="Path_1328" data-name="Path 1328" d="M601,228.87c1.087,1.19,8.858,3.92,13.377,2.268" transform="translate(-592.793 -198.142)" fill="none" stroke="#9b621f" stroke-linecap="round" stroke-linejoin="round" stroke-width="0.75"/>
          <path id="Path_1329" data-name="Path 1329" d="M614.089,201.393c-.479-2.456,1.712-5.34,3.483-5.5" transform="translate(-594.67 -193.388)" fill="none" stroke="#9b621f" stroke-linecap="round" stroke-linejoin="round" stroke-width="0.75"/>
          <path id="Path_1330" data-name="Path 1330" d="M620.12,201.847c.351-1.951,2.679-6.633,5.991-6.847" transform="translate(-595.549 -193.259)" fill="none" stroke="#9b621f" stroke-linecap="round" stroke-linejoin="round" stroke-width="0.75"/>
          <path id="Path_1331" data-name="Path 1331" d="M626.3,206.3c.856-3.8,3.363-7.891,7.352-9.577" transform="translate(-596.44 -193.507)" fill="none" stroke="#9b621f" stroke-linecap="round" stroke-linejoin="round" stroke-width="0.75"/>
          <path id="Path_1332" data-name="Path 1332" d="M630.64,212.177c.531-4.151,6.273-7.583,9.312-7.369" transform="translate(-597.066 -194.672)" fill="none" stroke="#9b621f" stroke-linecap="round" stroke-linejoin="round" stroke-width="0.75"/>
          <path id="Path_1333" data-name="Path 1333" d="M629.58,219.5c3.723-3.2,10.176-6.034,13.582-6.265" transform="translate(-596.913 -195.889)" fill="none" stroke="#9b621f" stroke-linecap="round" stroke-linejoin="round" stroke-width="0.75"/>
          <path id="Path_1334" data-name="Path 1334" d="M605.667,230.1c3.363.727,7.129.334,7.009.488s-.7,5.135-4.382,4.613S605.667,230.1,605.667,230.1Z" transform="translate(-593.446 -198.319)" fill="#fff" stroke="#ef8a66" stroke-linecap="round" stroke-linejoin="round" stroke-width="0.75"/>
        </g>
      </g>
      <g id="Girl_L" data-name="Girl L" transform="translate(19)">
        <g id="hand-3" data-name="hand">
          <path id="Path_1385" data-name="Path 1385" d="M268.09,178.4l-4.08.42-4.82.52,3.27-3.42,3.02-3.15Z" fill="#fff"/>
          <path id="Path_1386" data-name="Path 1386" d="M252.14,300.14c12.66,8,24.19-.84,27.37-16.94,4.69-23.77,8.72-83.82,8.72-83.82s6.43-13.92,8.48-18.95,1.72-9.5-1.26-10.79c0,0-3-9.3-7.62-9.59a17.81,17.81,0,0,0-2.77-1.19c-2.31-.47-6.56,1.66-7.68,2.84s2.6,2.42,4.72,2.07,3.67,5,2.72,7.26-5,6.8-6.44,5.62-1.89-5.26-1.3-8.45.18-4.79-1.95-3.55-6.26,11.58-5.79,13.47,3.19,9.69,3.37,11-20.6,69.7-24.7,81.57S243.19,294.49,252.14,300.14Z" fill="#febd9d"/>
          <path id="Path_1387" data-name="Path 1387" d="M295.45,169.64a37.686,37.686,0,0,1,.42,4.81" fill="none" stroke="#ef8a66" stroke-linecap="round" stroke-linejoin="round" stroke-width="0.75"/>
          <path id="Path_1388" data-name="Path 1388" d="M290,167a28.79,28.79,0,0,1,1,6.74" fill="none" stroke="#ef8a66" stroke-linecap="round" stroke-linejoin="round" stroke-width="0.75"/>
          <path id="Path_1389" data-name="Path 1389" d="M265.48,172.77l6.79-3.86c-1.56,3.2-3,7.27-3,8.85l-1.21.64a4.37,4.37,0,0,1-2.58-5.63Z" fill="#683f1d"/>
          <path id="Path_1390" data-name="Path 1390" d="M264.01,178.82l-4.82.52,3.27-3.42Z" fill="#683f1d"/>
          <path id="Path_1391" data-name="Path 1391" d="M269.34,178.13c-.47-1.89,3.67-12.24,5.79-13.47,1.57-.92,2.21-.3,2.2,1.38a12,12,0,0,1-.25,2.16,17.2,17.2,0,0,0-.26,3.38c0,.15,0,.3,0,.44v.43a1.849,1.849,0,0,0,.07.62l.09.6a4.94,4.94,0,0,0,1.35,3c1.48,1.19,5.5-3.31,6.44-5.6a4.481,4.481,0,0,0,.29-1.63" fill="none" stroke="#ef8a66" stroke-linecap="round" stroke-linejoin="round" stroke-width="0.75"/>
          <path id="Path_1392" data-name="Path 1392" d="M281.2,163.83c-2.12,0-4.8-1.1-3.83-2.13,1.13-1.18,5.38-3.31,7.69-2.84a18,18,0,0,1,2.77,1.18h0" fill="none" stroke="#ef8a66" stroke-linecap="round" stroke-linejoin="round" stroke-width="0.75"/>
          <path id="Path_1393" data-name="Path 1393" d="M293.41,165a30.6,30.6,0,0,1,2,4.62c1.94.84,2.76,3,2.52,5.85" fill="none" stroke="#ef8a66" stroke-linecap="round" stroke-linejoin="round" stroke-width="0.75"/>
          <path id="Path_1394" data-name="Path 1394" d="M297.71,162.76l-4.3,2.26-8.3,4.39L277,173.67a16,16,0,0,1,.05-5.47,12,12,0,0,0,.25-2.16l3.87-2.21,6.66-3.79,6.53-3.7Z" fill="#683f1d"/>
          <path id="Path_1395" data-name="Path 1395" d="M293.15,156.34c-.37,1.69.83,6.63,3.94,7.62l2-1.24-3.85-7.51Z" fill="#fff"/>
          <path id="Path_1396" data-name="Path 1396" d="M298.74,158c1.16,2.12,1.41,4.2.57,4.66s-2.46-.88-3.61-3-1.41-4.2-.57-4.66S297.58,155.88,298.74,158Z" fill="#683f1d"/>
          <path id="Path_1397" data-name="Path 1397" d="M269.34,178.13c-.47-1.89,3.67-12.24,5.79-13.47,1.57-.92,2.21-.3,2.2,1.38a12,12,0,0,1-.25,2.16,17.2,17.2,0,0,0-.26,3.38c0,.15,0,.3,0,.44v.43a1.849,1.849,0,0,0,.07.62l.09.6a4.94,4.94,0,0,0,1.35,3c1.48,1.19,5.5-3.31,6.44-5.6a4.481,4.481,0,0,0,.29-1.63" fill="none" stroke="#ef8a66" stroke-linecap="round" stroke-linejoin="round" stroke-width="0.75"/>
        </g>
        <g id="body-2" data-name="body">
          <path id="Path_1398" data-name="Path 1398" d="M156.42,281.63c-2.93,13-23.2,8.84-24.34,2.18s.7-8.31,2.26-20.51c1.28-10,18.26-10.19,21.27-3.48a5.37,5.37,0,0,1,.32,3.45,29,29,0,0,0-.05,10.31C156.31,276.78,156.89,279.5,156.42,281.63Z" fill="#febd9d"/>
          <path id="Path_1399" data-name="Path 1399" d="M155.93,263.27a29,29,0,0,0-.05,10.31c-8.66-2.5-10.17-12.22-10.17-12.22l9.9-1.54A5.37,5.37,0,0,1,155.93,263.27Z" fill="#f4a789"/>
          <path id="Path_1400" data-name="Path 1400" d="M104.4,373.65l19.5,7.48s-2.71,22.54-2.92,22.21-32.82-3.73-32.82-3.73Z" fill="#febd9d"/>
          <path id="Path_1401" data-name="Path 1401" d="M76,386.77c2.72,9.83,9.54,13.41,16.07,13.19S107.64,396.31,111,386c2.57-7.89-3-17.35-3-17.35Z" fill="#fff"/>
          <path id="Path_1402" data-name="Path 1402" d="M113.12,503.08s2.5-13.64-2.79-36.21a97,97,0,0,1-3-27h0c.61-13.92,4.92-29.47,15.53-50.62l68-2.79q4.56,14.19,8.28,26.08c7.53,24,12.66,41.3,16.25,53,4.78,15.56,12.86,37.55,12.86,37.55Z" fill="#c3d3e4"/>
          <path id="Path_1404" data-name="Path 1404" d="M192.85,351.29c-3.75,14.55-.28,30.35,1.24,33.81s.28,5.83-1.93,6.24-67.36,2.36-70.28,1.94-3.87-2.63-3.87-5.12-5.13-20-7.63-27c0,0-.27,19.54-5.68,25.36s-18,8.18-25.91,3.89a6.65,6.65,0,0,1-2.92-4.11c-3-9.34,1.64-30.67,4.86-45.92,1.28-6.12,3.13-13.77,5.49-21.41,4.75-15.39,11.58-30.77,20-33.52,18.78-6.13,32.45-3.74,42.41-4.67,3.1-.3,6.1-.66,9-1h.11c15.79-2,27.88-3.83,33.88,6.32a23.239,23.239,0,0,1,2.18,5.11c3.71,12.24,2.17,20.31,1.36,31.61,0,.45-.05.9-.08,1.36a81.93,81.93,0,0,1-2.23,27.11Z" fill="#535353"/>
          <path id="Path_1405" data-name="Path 1405" d="M110.38,361.12h0s-.27,19.54-5.68,25.36-18,8.18-25.91,3.89a6.65,6.65,0,0,1-2.92-4.11c25.47,7.57,33.95-19.53,27.16-24.53-6.61-4.87-6.51-17.93-2.47-24.72C103.25,344.8,108.31,354.72,110.38,361.12Z" fill="#535353"/>
          <path id="Path_1406" data-name="Path 1406" d="M191.61,286c-7.21,5.5-13.25,12.54-15.68,21.67-1.64,6.14-4.3,10.93-7.89,14.33-9.73,9.26-26.31,8.28-47.76-3.79-14.85-8.34-25-6.57-34.06.69,4.75-15.39,11.58-30.77,20-33.52,18.78-6.13,32.45-3.74,42.41-4.67,3.1-.3,6.1-.66,9-1h.11C173.52,277.75,185.61,275.89,191.61,286Z" fill="#535353"/>
          <path id="Path_1407" data-name="Path 1407" d="M98.84,330.07a30.1,30.1,0,0,0,1.72,6.95c2.69,7.78,7.75,17.7,9.82,24.1h0" fill="none" stroke="#c4b4a0" stroke-linecap="round" stroke-linejoin="round" stroke-width="0.75"/>
        </g>
        <g id="upper_hand-2" data-name="upper hand">
          <path id="Path_1408" data-name="Path 1408" d="M263.54,303.7c-4.13,2.75-27.48,9.27-45.87,14.55a133.79,133.79,0,0,1-22.52,4.51,104.519,104.519,0,0,1-20.26.37A44,44,0,0,1,168,322c-28.69-6.94-24.12-39.81-10.42-42.31h.11a569.5,569.5,0,0,1,59.06-7.25c8.58-.53,17.34-.77,25.79-.55C275.4,272.78,267.67,301,263.54,303.7Z" fill="#535353"/>
          <path id="Path_1409" data-name="Path 1409" d="M263.54,303.7c-4.13,2.75-27.48,9.27-45.87,14.55a133.79,133.79,0,0,1-22.52,4.51,104.519,104.519,0,0,1-20.26.37" fill="none" stroke="#c4b4a0" stroke-linecap="round" stroke-linejoin="round" stroke-width="0.75"/>
          <path id="Path_1410" data-name="Path 1410" d="M216.79,272.47c-7.55,3.13-17.1,7.39-25.18,13.57-7.21,5.5-13.25,12.54-15.68,21.67-1.64,6.14-4.3,10.93-7.89,14.33-28.69-6.94-24.12-39.81-10.42-42.31h.11a569.486,569.486,0,0,1,59.06-7.26Z" fill="#535353"/>
          <path id="Path_1411" data-name="Path 1411" d="M239.5,271.85c5.06-1.94,10.57-1.55,17.61,1.81,8.24,3.94,15.38,14.07,11.9,28-.57,2.25-9.33,6.93-10.78,5.9S268.26,278,239.5,271.85Z" fill="#fff"/>
        </g>
        <g id="head-2" data-name="head">
          <path id="Path_1412" data-name="Path 1412" d="M137,264.44c17.37,4.11,26.14,2.34,28.38-6.81s-7.09-23.06-7.09-23.06l.74-5a68.307,68.307,0,0,1-6.06-3.17c-.94-.75-4-8.5-6.82-9.25s-22.59,9.43-16.71,26.23S137,264.44,137,264.44Z" fill="#febd9d"/>
          <path id="Path_1413" data-name="Path 1413" d="M153.86,239.34c-.6,1.9-3.73,2.62-7,1.6s-5.42-3.4-4.83-5.31,3.73-2.63,7-1.6S154.46,237.43,153.86,239.34Z" fill="#f4af90"/>
          <path id="Path_1414" data-name="Path 1414" d="M158.26,234.57l.74-5a68.31,68.31,0,0,1-6.06-3.17" fill="none" stroke="#ef8a66" stroke-linecap="round" stroke-linejoin="round" stroke-width="0.75"/>
          <path id="Path_1415" data-name="Path 1415" d="M144.05,299.58c-8.17,2-10.19-6.27-10.19-6.27-6.59,6.83-14.38,4.87-16.18,1.26,0,0-6.71,2.77-12.08-1.26-7.38-5.53-2.57-13.76-2.57-13.76-7.74-2-6.32-9.73-1.88-13l.66-.46c4.62-3,12.92-5,9.87-11-3.18-6.39-5.79-15.19,2.42-20.11,0,0,.42-9.49,6.32-12.6s6.29-4.34,6.42-6.1c.45-6.48,6.57-12.6,13.51-7.83.22.15.45.31.67.48,7.43-.74,9.39,6.25,8.14,9.62,2.66,8.72-3.68,15.26-1.88,18.31,2.06,3.48.49,7.64.49,7.64-3.07-4.87-6.85-6.41-9.45-2.24-2.11,3.4-.39,7.85,6.44,12.09,7.31,4.54,3.85,10.37,2.25,14.76a17.37,17.37,0,0,0,1.91,15.62C152.45,289.76,152.22,297.62,144.05,299.58Z" fill="#7f542d"/>
          <path id="Path_1416" data-name="Path 1416" d="M144.05,299.58c-8.17,2-10.19-6.27-10.19-6.27-6.59,6.83-14.38,4.87-16.18,1.26,0,0-6.71,2.77-12.08-1.26-7.38-5.53-2.57-13.76-2.57-13.76-7.74-2-6.32-9.73-1.88-13l.66-.46c3.11,8.73,8.77,13.45,14.54,12.09,7.67-1.78,12-6,19.18-1.58s9.33-16.2-1.19-19.31-12.54-20.8-3.44-23c6.81-1.6,12.93-15.37,9.45-25.93.22.15.45.31.67.48,7.43-.74,9.39,6.25,8.14,9.62,2.66,8.72-3.68,15.26-1.88,18.31,2.06,3.48.49,7.64.49,7.64-3.07-4.87-6.85-6.41-9.45-2.24-2.11,3.4-.39,7.85,6.44,12.09,7.31,4.54,3.85,10.37,2.25,14.76a17.37,17.37,0,0,0,1.91,15.62C152.45,289.76,152.22,297.62,144.05,299.58Z" fill="#704725"/>
          <path id="Path_1417" data-name="Path 1417" d="M150.69,231.27a1.32,1.32,0,1,0,.387-.943A1.33,1.33,0,0,0,150.69,231.27Z" fill="#683f1d"/>
          <path id="Path_1418" data-name="Path 1418" d="M103,279.56c3.79-7.51,7.24-7.29,10.46-9.77s4.63-7.64,4-10" fill="none" stroke="#a56f42" stroke-linecap="round" stroke-linejoin="round" stroke-width="0.75"/>
          <path id="Path_1419" data-name="Path 1419" d="M117.68,294.57a9,9,0,0,1,1-10.77" fill="none" stroke="#a56f42" stroke-linecap="round" stroke-linejoin="round" stroke-width="0.75"/>
          <path id="Path_1420" data-name="Path 1420" d="M133.86,293.31a9.7,9.7,0,0,1,.41-7.89" fill="none" stroke="#a56f42" stroke-linecap="round" stroke-linejoin="round" stroke-width="0.75"/>
          <path id="Path_1421" data-name="Path 1421" d="M127.67,222.84c4.44-1,4.87-4.17,6.2-6.78s3.39-6.65,7.15-7.2" fill="none" stroke="#a56f42" stroke-linecap="round" stroke-linejoin="round" stroke-width="0.75"/>
          <path id="Path_1422" data-name="Path 1422" d="M149.16,218.48c-1.35-3-5.63-6.59-9.6-3" fill="none" stroke="#a56f42" stroke-linecap="round" stroke-linejoin="round" stroke-width="0.75"/>
          <path id="Path_1423" data-name="Path 1423" d="M141.45,247.82c-.09-3.76,3.62-4.64,6.5-1.77" fill="none" stroke="#ef8a66" stroke-linecap="round" stroke-linejoin="round" stroke-width="0.75"/>
          <path id="Path_1424" data-name="Path 1424" d="M146.44,249.45c-2.9,0-3-4.35.69-4.1" fill="none" stroke="#ef8a66" stroke-linecap="round" stroke-linejoin="round" stroke-width="0.75"/>
          <path id="Path_1425" data-name="Path 1425" d="M155.43,240.19a4.54,4.54,0,0,0,4.6,1.61" fill="none" stroke="#ef8a66" stroke-linecap="round" stroke-linejoin="round" stroke-width="0.75"/>
          <path id="Path_1426" data-name="Path 1426" d="M141,251.45c2.2,1.77,6.17,1.52,6.17,1.52" fill="none" stroke="#ef8a66" stroke-linecap="round" stroke-linejoin="round" stroke-width="0.75"/>
          <circle id="Ellipse_70" data-name="Ellipse 70" cx="2.82" cy="2.82" r="2.82" transform="translate(146.72 249.45)" fill="#fff"/>
          <path id="Path_1427" data-name="Path 1427" d="M147.4,230c1.38.9,4.7-5.48,2.1-7.23S145.54,228.79,147.4,230Z" fill="#7f542d"/>
        </g>
      </g>
      <g id="foreground" transform="translate(1 -10.78)">
        <rect id="Rectangle_195" data-name="Rectangle 195" width="639.95" height="21.33" rx="9.89" transform="translate(77.35 498.01)" fill="#ededed"/>
        <path id="Path_1428" data-name="Path 1428" d="M96.53,519.34c16.4-7.84,40.73-9.57,59.27,0" fill="none" stroke="#ddd" stroke-linecap="round" stroke-linejoin="round" stroke-width="0.75"/>
        <path id="Path_1429" data-name="Path 1429" d="M90.87,498c16.17,9,26.92,8.27,46.87,8,14.86-.19,32.75,7.38,44.66,13.33" fill="none" stroke="#ddd" stroke-linecap="round" stroke-linejoin="round" stroke-width="0.75"/>
        <path id="Path_1430" data-name="Path 1430" d="M167.62,498c11.73,13.19,19.87,14.84,23.81,11.44,4.18-3.61,8.48-4.59,12.92-.78,5.14,4.42,12.29-4.53,16.31-10.66" fill="none" stroke="#ddd" stroke-linecap="round" stroke-linejoin="round" stroke-width="0.75"/>
        <path id="Path_1431" data-name="Path 1431" d="M213.36,519.34c4.74-4.37,13.19-9.77,26.35-10.67,15.6-1,35.42,6.18,46,10.67" fill="none" stroke="#ddd" stroke-linecap="round" stroke-linejoin="round" stroke-width="0.75"/>
        <path id="Path_1432" data-name="Path 1432" d="M265.23,498c18.3,9.6,38.3,15.22,54.46,10.66,15.77-4.43,53.43,1.09,67.13-10.66" fill="none" stroke="#ddd" stroke-linecap="round" stroke-linejoin="round" stroke-width="0.75"/>
        <path id="Path_1433" data-name="Path 1433" d="M334.64,519.34c11.72-6.67,30-10.75,44.22,0" fill="none" stroke="#ddd" stroke-linecap="round" stroke-linejoin="round" stroke-width="0.75"/>
        <path id="Path_1434" data-name="Path 1434" d="M399,519.34c21.79-16.94,65.29-20,101.62-10.76,43,10.95,62.28-1.69,70.09-10.57" fill="none" stroke="#ddd" stroke-linecap="round" stroke-linejoin="round" stroke-width="0.75"/>
        <path id="Path_1435" data-name="Path 1435" d="M438.18,519.34c15.78-7.09,37-8.55,59.41,0" fill="none" stroke="#ddd" stroke-linecap="round" stroke-linejoin="round" stroke-width="0.75"/>
        <path id="Path_1436" data-name="Path 1436" d="M575.73,519.34c26.42-12.3,47.56-10.87,67.16,0" fill="none" stroke="#ddd" stroke-linecap="round" stroke-linejoin="round" stroke-width="0.75"/>
        <path id="Path_1437" data-name="Path 1437" d="M613,498c43.53,14.62,79.55,25.94,103.28,6.1" fill="none" stroke="#ddd" stroke-linecap="round" stroke-linejoin="round" stroke-width="0.75"/>
        <path id="Path_1438" data-name="Path 1438" d="M647.72,498c22.09,13,47.89,12,63.77,1.17" fill="none" stroke="#ddd" stroke-linecap="round" stroke-linejoin="round" stroke-width="0.75"/>
      </g>
    </g>
  </g>
</svg>
